<mxfile host="Electron" modified="2024-06-17T12:34:46.550Z" agent="Mozilla/5.0 (Windows NT 10.0; Win64; x64) AppleWebKit/537.36 (KHTML, like Gecko) draw.io/24.5.3 Chrome/124.0.6367.207 Electron/30.0.6 Safari/537.36" etag="h3jitZpwsG8g8FIdmwJW" version="24.5.3" type="device" pages="5">
  <diagram name="Message" id="7xJStP7T0dpuPOLWgDR-">
    <mxGraphModel dx="2261" dy="844" grid="1" gridSize="10" guides="1" tooltips="1" connect="1" arrows="1" fold="1" page="1" pageScale="1" pageWidth="827" pageHeight="1169" math="0" shadow="0">
      <root>
        <mxCell id="0" />
        <mxCell id="1" parent="0" />
        <mxCell id="jzZWvYNVOyrDKgcHZ-Ct-1" value="XmlMessageParser" style="swimlane;fontStyle=1;align=center;verticalAlign=top;childLayout=stackLayout;horizontal=1;startSize=26;horizontalStack=0;resizeParent=1;resizeParentMax=0;resizeLast=0;collapsible=1;marginBottom=0;" vertex="1" parent="1">
          <mxGeometry x="80" y="60" width="330" height="100" as="geometry" />
        </mxCell>
        <mxCell id="jzZWvYNVOyrDKgcHZ-Ct-2" value="" style="line;strokeWidth=1;fillColor=none;align=left;verticalAlign=middle;spacingTop=-1;spacingLeft=3;spacingRight=3;rotatable=0;labelPosition=right;points=[];portConstraint=eastwest;strokeColor=inherit;" vertex="1" parent="jzZWvYNVOyrDKgcHZ-Ct-1">
          <mxGeometry y="26" width="330" height="8" as="geometry" />
        </mxCell>
        <mxCell id="jzZWvYNVOyrDKgcHZ-Ct-3" value="+ ParseDialogData(XmlNode) : DisplayDialog&#xa;+ ParseChoiceListData(XmlNode) : DisplayChoiceList&#xa;+ ParseInputNumberData(XmlNode) : DisplayInputNumber" style="text;strokeColor=none;fillColor=none;align=left;verticalAlign=top;spacingLeft=4;spacingRight=4;overflow=hidden;rotatable=0;points=[[0,0.5],[1,0.5]];portConstraint=eastwest;" vertex="1" parent="jzZWvYNVOyrDKgcHZ-Ct-1">
          <mxGeometry y="34" width="330" height="66" as="geometry" />
        </mxCell>
        <mxCell id="jzZWvYNVOyrDKgcHZ-Ct-4" value="«interface»&lt;br&gt;&lt;b&gt;IRunnable&lt;/b&gt;" style="html=1;" vertex="1" parent="1">
          <mxGeometry x="335" y="200" width="110" height="50" as="geometry" />
        </mxCell>
        <mxCell id="jzZWvYNVOyrDKgcHZ-Ct-5" value="DisplayDialog" style="swimlane;fontStyle=1;align=center;verticalAlign=top;childLayout=stackLayout;horizontal=1;startSize=26;horizontalStack=0;resizeParent=1;resizeParentMax=0;resizeLast=0;collapsible=1;marginBottom=0;" vertex="1" parent="1">
          <mxGeometry x="80" y="320" width="160" height="180" as="geometry" />
        </mxCell>
        <mxCell id="jzZWvYNVOyrDKgcHZ-Ct-6" value="+ string : Locutor&#xa;+ string : Message&#xa;+ DialogBoxStyle : BoxStyle&#xa;+ DialogBoxPosition : BoxPosition&#xa;+ string : FaceGraphics&#xa;+ UnityEvent : Finished" style="text;strokeColor=none;fillColor=none;align=left;verticalAlign=top;spacingLeft=4;spacingRight=4;overflow=hidden;rotatable=0;points=[[0,0.5],[1,0.5]];portConstraint=eastwest;" vertex="1" parent="jzZWvYNVOyrDKgcHZ-Ct-5">
          <mxGeometry y="26" width="160" height="94" as="geometry" />
        </mxCell>
        <mxCell id="jzZWvYNVOyrDKgcHZ-Ct-7" value="" style="line;strokeWidth=1;fillColor=none;align=left;verticalAlign=middle;spacingTop=-1;spacingLeft=3;spacingRight=3;rotatable=0;labelPosition=right;points=[];portConstraint=eastwest;strokeColor=inherit;" vertex="1" parent="jzZWvYNVOyrDKgcHZ-Ct-5">
          <mxGeometry y="120" width="160" height="8" as="geometry" />
        </mxCell>
        <mxCell id="jzZWvYNVOyrDKgcHZ-Ct-8" value="+ Run(void) : void" style="text;strokeColor=none;fillColor=none;align=left;verticalAlign=top;spacingLeft=4;spacingRight=4;overflow=hidden;rotatable=0;points=[[0,0.5],[1,0.5]];portConstraint=eastwest;" vertex="1" parent="jzZWvYNVOyrDKgcHZ-Ct-5">
          <mxGeometry y="128" width="160" height="52" as="geometry" />
        </mxCell>
        <mxCell id="jzZWvYNVOyrDKgcHZ-Ct-9" value="DisplayChoiceList" style="swimlane;fontStyle=1;align=center;verticalAlign=top;childLayout=stackLayout;horizontal=1;startSize=26;horizontalStack=0;resizeParent=1;resizeParentMax=0;resizeLast=0;collapsible=1;marginBottom=0;" vertex="1" parent="1">
          <mxGeometry x="310" y="320" width="160" height="140" as="geometry" />
        </mxCell>
        <mxCell id="jzZWvYNVOyrDKgcHZ-Ct-10" value="+ List&lt;Choice&gt; : Choices&#xa;+ string : Message&#xa;+ UnityEvent : Finished" style="text;strokeColor=none;fillColor=none;align=left;verticalAlign=top;spacingLeft=4;spacingRight=4;overflow=hidden;rotatable=0;points=[[0,0.5],[1,0.5]];portConstraint=eastwest;" vertex="1" parent="jzZWvYNVOyrDKgcHZ-Ct-9">
          <mxGeometry y="26" width="160" height="64" as="geometry" />
        </mxCell>
        <mxCell id="jzZWvYNVOyrDKgcHZ-Ct-11" value="" style="line;strokeWidth=1;fillColor=none;align=left;verticalAlign=middle;spacingTop=-1;spacingLeft=3;spacingRight=3;rotatable=0;labelPosition=right;points=[];portConstraint=eastwest;strokeColor=inherit;" vertex="1" parent="jzZWvYNVOyrDKgcHZ-Ct-9">
          <mxGeometry y="90" width="160" height="8" as="geometry" />
        </mxCell>
        <mxCell id="jzZWvYNVOyrDKgcHZ-Ct-12" value="+ Add(Choice) : void&#xa;+ Run(void) : void" style="text;strokeColor=none;fillColor=none;align=left;verticalAlign=top;spacingLeft=4;spacingRight=4;overflow=hidden;rotatable=0;points=[[0,0.5],[1,0.5]];portConstraint=eastwest;" vertex="1" parent="jzZWvYNVOyrDKgcHZ-Ct-9">
          <mxGeometry y="98" width="160" height="42" as="geometry" />
        </mxCell>
        <mxCell id="jzZWvYNVOyrDKgcHZ-Ct-13" value="DisplayInputNumber" style="swimlane;fontStyle=1;align=center;verticalAlign=top;childLayout=stackLayout;horizontal=1;startSize=26;horizontalStack=0;resizeParent=1;resizeParentMax=0;resizeLast=0;collapsible=1;marginBottom=0;" vertex="1" parent="1">
          <mxGeometry x="540" y="320" width="160" height="104" as="geometry" />
        </mxCell>
        <mxCell id="jzZWvYNVOyrDKgcHZ-Ct-14" value="+ int : DigitsCount&#xa;+ UnityEvent : Finished" style="text;strokeColor=none;fillColor=none;align=left;verticalAlign=top;spacingLeft=4;spacingRight=4;overflow=hidden;rotatable=0;points=[[0,0.5],[1,0.5]];portConstraint=eastwest;" vertex="1" parent="jzZWvYNVOyrDKgcHZ-Ct-13">
          <mxGeometry y="26" width="160" height="44" as="geometry" />
        </mxCell>
        <mxCell id="jzZWvYNVOyrDKgcHZ-Ct-15" value="" style="line;strokeWidth=1;fillColor=none;align=left;verticalAlign=middle;spacingTop=-1;spacingLeft=3;spacingRight=3;rotatable=0;labelPosition=right;points=[];portConstraint=eastwest;strokeColor=inherit;" vertex="1" parent="jzZWvYNVOyrDKgcHZ-Ct-13">
          <mxGeometry y="70" width="160" height="8" as="geometry" />
        </mxCell>
        <mxCell id="jzZWvYNVOyrDKgcHZ-Ct-16" value="+ Run(void) : void" style="text;strokeColor=none;fillColor=none;align=left;verticalAlign=top;spacingLeft=4;spacingRight=4;overflow=hidden;rotatable=0;points=[[0,0.5],[1,0.5]];portConstraint=eastwest;" vertex="1" parent="jzZWvYNVOyrDKgcHZ-Ct-13">
          <mxGeometry y="78" width="160" height="26" as="geometry" />
        </mxCell>
        <mxCell id="jzZWvYNVOyrDKgcHZ-Ct-17" value="" style="endArrow=block;dashed=1;endFill=0;endSize=12;html=1;rounded=0;exitX=0.5;exitY=0;exitDx=0;exitDy=0;entryX=0.5;entryY=1;entryDx=0;entryDy=0;" edge="1" parent="1" source="jzZWvYNVOyrDKgcHZ-Ct-5" target="jzZWvYNVOyrDKgcHZ-Ct-4">
          <mxGeometry width="160" relative="1" as="geometry">
            <mxPoint x="330" y="430" as="sourcePoint" />
            <mxPoint x="490" y="430" as="targetPoint" />
          </mxGeometry>
        </mxCell>
        <mxCell id="jzZWvYNVOyrDKgcHZ-Ct-18" value="" style="endArrow=block;dashed=1;endFill=0;endSize=12;html=1;rounded=0;exitX=0.5;exitY=0;exitDx=0;exitDy=0;" edge="1" parent="1" source="jzZWvYNVOyrDKgcHZ-Ct-9">
          <mxGeometry width="160" relative="1" as="geometry">
            <mxPoint x="330" y="430" as="sourcePoint" />
            <mxPoint x="390" y="250" as="targetPoint" />
          </mxGeometry>
        </mxCell>
        <mxCell id="jzZWvYNVOyrDKgcHZ-Ct-19" value="" style="endArrow=block;dashed=1;endFill=0;endSize=12;html=1;rounded=0;exitX=0.5;exitY=0;exitDx=0;exitDy=0;" edge="1" parent="1" source="jzZWvYNVOyrDKgcHZ-Ct-13">
          <mxGeometry width="160" relative="1" as="geometry">
            <mxPoint x="330" y="430" as="sourcePoint" />
            <mxPoint x="390" y="250" as="targetPoint" />
          </mxGeometry>
        </mxCell>
        <mxCell id="jzZWvYNVOyrDKgcHZ-Ct-20" value="enum DialogBoxStyle&lt;br&gt;&lt;br&gt;Classic&lt;br&gt;Transparent" style="html=1;" vertex="1" parent="1">
          <mxGeometry x="-180" y="340" width="140" height="80" as="geometry" />
        </mxCell>
        <mxCell id="jzZWvYNVOyrDKgcHZ-Ct-21" value="enum DialogBoxPosition&lt;br&gt;&lt;br&gt;Bottom&lt;br&gt;Middle&lt;br&gt;Top" style="html=1;" vertex="1" parent="1">
          <mxGeometry x="-180" y="470" width="140" height="80" as="geometry" />
        </mxCell>
        <mxCell id="jzZWvYNVOyrDKgcHZ-Ct-22" value="Choice" style="swimlane;fontStyle=1;align=center;verticalAlign=top;childLayout=stackLayout;horizontal=1;startSize=26;horizontalStack=0;resizeParent=1;resizeParentMax=0;resizeLast=0;collapsible=1;marginBottom=0;" vertex="1" parent="1">
          <mxGeometry x="310" y="510" width="160" height="78" as="geometry" />
        </mxCell>
        <mxCell id="jzZWvYNVOyrDKgcHZ-Ct-23" value="+ string : Id&#xa;+ string : Text" style="text;strokeColor=none;fillColor=none;align=left;verticalAlign=top;spacingLeft=4;spacingRight=4;overflow=hidden;rotatable=0;points=[[0,0.5],[1,0.5]];portConstraint=eastwest;" vertex="1" parent="jzZWvYNVOyrDKgcHZ-Ct-22">
          <mxGeometry y="26" width="160" height="44" as="geometry" />
        </mxCell>
        <mxCell id="jzZWvYNVOyrDKgcHZ-Ct-24" value="" style="line;strokeWidth=1;fillColor=none;align=left;verticalAlign=middle;spacingTop=-1;spacingLeft=3;spacingRight=3;rotatable=0;labelPosition=right;points=[];portConstraint=eastwest;strokeColor=inherit;" vertex="1" parent="jzZWvYNVOyrDKgcHZ-Ct-22">
          <mxGeometry y="70" width="160" height="8" as="geometry" />
        </mxCell>
        <mxCell id="jzZWvYNVOyrDKgcHZ-Ct-25" value="" style="endArrow=classic;html=1;rounded=0;exitX=0.5;exitY=0;exitDx=0;exitDy=0;entryX=0.5;entryY=0.976;entryDx=0;entryDy=0;entryPerimeter=0;" edge="1" parent="1" source="jzZWvYNVOyrDKgcHZ-Ct-22" target="jzZWvYNVOyrDKgcHZ-Ct-12">
          <mxGeometry width="50" height="50" relative="1" as="geometry">
            <mxPoint x="390" y="480" as="sourcePoint" />
            <mxPoint x="440" y="430" as="targetPoint" />
          </mxGeometry>
        </mxCell>
        <mxCell id="jzZWvYNVOyrDKgcHZ-Ct-26" value="See Engine.Events" style="shape=note;whiteSpace=wrap;html=1;backgroundOutline=1;darkOpacity=0.05;" vertex="1" parent="1">
          <mxGeometry x="520" y="195" width="160" height="60" as="geometry" />
        </mxCell>
        <mxCell id="jzZWvYNVOyrDKgcHZ-Ct-27" value="" style="endArrow=none;html=1;rounded=0;exitX=1;exitY=0.5;exitDx=0;exitDy=0;entryX=0;entryY=0.5;entryDx=0;entryDy=0;entryPerimeter=0;" edge="1" parent="1" source="jzZWvYNVOyrDKgcHZ-Ct-4" target="jzZWvYNVOyrDKgcHZ-Ct-26">
          <mxGeometry width="50" height="50" relative="1" as="geometry">
            <mxPoint x="390" y="480" as="sourcePoint" />
            <mxPoint x="440" y="430" as="targetPoint" />
          </mxGeometry>
        </mxCell>
      </root>
    </mxGraphModel>
  </diagram>
  <diagram id="c8qAeCbZ0cIdAHeLq-S4" name="Events">
    <mxGraphModel dx="2261" dy="844" grid="1" gridSize="10" guides="1" tooltips="1" connect="1" arrows="1" fold="1" page="1" pageScale="1" pageWidth="827" pageHeight="1169" math="0" shadow="0">
      <root>
        <mxCell id="0" />
        <mxCell id="1" parent="0" />
        <mxCell id="wwnRxYGcSm5nalg1qEp3-1" value="&lt;&lt; interface&gt;&gt; IRunnable" style="swimlane;fontStyle=1;align=center;verticalAlign=top;childLayout=stackLayout;horizontal=1;startSize=26;horizontalStack=0;resizeParent=1;resizeParentMax=0;resizeLast=0;collapsible=1;marginBottom=0;" vertex="1" parent="1">
          <mxGeometry x="150" y="60" width="240" height="104" as="geometry" />
        </mxCell>
        <mxCell id="wwnRxYGcSm5nalg1qEp3-2" value="+ UnityEvent : Finished&#xa;+ bool : IsFinished" style="text;strokeColor=none;fillColor=none;align=left;verticalAlign=top;spacingLeft=4;spacingRight=4;overflow=hidden;rotatable=0;points=[[0,0.5],[1,0.5]];portConstraint=eastwest;" vertex="1" parent="wwnRxYGcSm5nalg1qEp3-1">
          <mxGeometry y="26" width="240" height="44" as="geometry" />
        </mxCell>
        <mxCell id="wwnRxYGcSm5nalg1qEp3-3" value="" style="line;strokeWidth=1;fillColor=none;align=left;verticalAlign=middle;spacingTop=-1;spacingLeft=3;spacingRight=3;rotatable=0;labelPosition=right;points=[];portConstraint=eastwest;strokeColor=inherit;" vertex="1" parent="wwnRxYGcSm5nalg1qEp3-1">
          <mxGeometry y="70" width="240" height="8" as="geometry" />
        </mxCell>
        <mxCell id="wwnRxYGcSm5nalg1qEp3-4" value="+ Run(void) : void" style="text;strokeColor=none;fillColor=none;align=left;verticalAlign=top;spacingLeft=4;spacingRight=4;overflow=hidden;rotatable=0;points=[[0,0.5],[1,0.5]];portConstraint=eastwest;" vertex="1" parent="wwnRxYGcSm5nalg1qEp3-1">
          <mxGeometry y="78" width="240" height="26" as="geometry" />
        </mxCell>
        <mxCell id="wwnRxYGcSm5nalg1qEp3-5" value="enum EventType&lt;br&gt;&lt;br&gt;DisplayDialog&lt;br&gt;DisplayChoice&lt;br&gt;InputNumber&lt;br&gt;&lt;br&gt;ControlSwitch&lt;br&gt;ControlVariable&lt;br&gt;ControlTimer&lt;br&gt;&lt;br&gt;ConditionalBranch&lt;br&gt;&lt;br&gt;ChangeGold&lt;br&gt;ChangeItems&lt;br&gt;ChangePartyMember&lt;br&gt;&lt;br&gt;ChangeEquipment&lt;br&gt;ChangeExp&lt;br&gt;ChangeLevel&lt;br&gt;ChangeName&lt;br&gt;ChangeSkills&lt;br&gt;RecoverAll&lt;br&gt;&lt;br&gt;GetOnOffVehicle&lt;br&gt;ScrollMap&lt;br&gt;SetMoveRoute&lt;br&gt;TransferObject&lt;br&gt;&lt;br&gt;ShowAnimation&lt;br&gt;ShowBalloonIcon&lt;br&gt;&lt;br&gt;FadeScreen&lt;br&gt;FlashScreen&lt;br&gt;ShakeScreen&lt;br&gt;TintScreen&lt;br&gt;&lt;br&gt;Wait&lt;br&gt;&lt;br&gt;MovePicture&lt;br&gt;RotatePicture&lt;br&gt;SetWeatherEffects&lt;br&gt;ShowPicture&lt;br&gt;TintPicture&lt;br&gt;&lt;br&gt;PlayBgm&lt;br&gt;FadeOutBgm&lt;br&gt;SaveBgm&lt;br&gt;ReplayBgm&lt;br&gt;PlayBgs&lt;br&gt;FadeOutBgs&lt;br&gt;PlayMusicalEffect&lt;br&gt;PlaySoundEffect&lt;br&gt;&lt;br&gt;BattleProcessing&lt;br&gt;ShopProcessing&lt;br&gt;NameInputProcessing&lt;br&gt;OpenMenu&lt;br&gt;OpenSave&lt;br&gt;GameOver&lt;br&gt;ReturnToTitle&lt;br&gt;&lt;br&gt;ChangeBattleBgm&lt;br&gt;ChangeBattleEndMusicalEffect&lt;br&gt;ChangeMenuAccess&lt;br&gt;ChangeSaveAccess&lt;br&gt;ChangeEncounterAccess&lt;br&gt;ChangeFormationAccess&lt;br&gt;ChangeWindowColor&lt;br&gt;ChangeActorGraphic&lt;br&gt;&lt;br&gt;ChangeMapNameDisplay" style="html=1;" vertex="1" parent="1">
          <mxGeometry x="520" y="60" width="190" height="1040" as="geometry" />
        </mxCell>
        <mxCell id="wwnRxYGcSm5nalg1qEp3-6" value="EventsRunner &lt;&lt; Mono &gt;&gt;" style="swimlane;fontStyle=1;align=center;verticalAlign=top;childLayout=stackLayout;horizontal=1;startSize=26;horizontalStack=0;resizeParent=1;resizeParentMax=0;resizeLast=0;collapsible=1;marginBottom=0;" vertex="1" parent="1">
          <mxGeometry x="30" y="240" width="280" height="140" as="geometry" />
        </mxCell>
        <mxCell id="wwnRxYGcSm5nalg1qEp3-7" value="+ TextAsset : _test" style="text;strokeColor=none;fillColor=none;align=left;verticalAlign=top;spacingLeft=4;spacingRight=4;overflow=hidden;rotatable=0;points=[[0,0.5],[1,0.5]];portConstraint=eastwest;" vertex="1" parent="wwnRxYGcSm5nalg1qEp3-6">
          <mxGeometry y="26" width="280" height="34" as="geometry" />
        </mxCell>
        <mxCell id="wwnRxYGcSm5nalg1qEp3-8" value="" style="line;strokeWidth=1;fillColor=none;align=left;verticalAlign=middle;spacingTop=-1;spacingLeft=3;spacingRight=3;rotatable=0;labelPosition=right;points=[];portConstraint=eastwest;strokeColor=inherit;" vertex="1" parent="wwnRxYGcSm5nalg1qEp3-6">
          <mxGeometry y="60" width="280" height="8" as="geometry" />
        </mxCell>
        <mxCell id="wwnRxYGcSm5nalg1qEp3-9" value="+ RunEvents(void) : void&#xa;+ RunEvents(EventsSequence) : void&#xa;+ MoveNext(void) : void&#xa;+ RunSequence(EventsSequence) : IEnumerator" style="text;strokeColor=none;fillColor=none;align=left;verticalAlign=top;spacingLeft=4;spacingRight=4;overflow=hidden;rotatable=0;points=[[0,0.5],[1,0.5]];portConstraint=eastwest;" vertex="1" parent="wwnRxYGcSm5nalg1qEp3-6">
          <mxGeometry y="68" width="280" height="72" as="geometry" />
        </mxCell>
        <mxCell id="wwnRxYGcSm5nalg1qEp3-10" value="EventsSequence" style="swimlane;fontStyle=1;align=center;verticalAlign=top;childLayout=stackLayout;horizontal=1;startSize=26;horizontalStack=0;resizeParent=1;resizeParentMax=0;resizeLast=0;collapsible=1;marginBottom=0;" vertex="1" parent="1">
          <mxGeometry x="-20" y="400" width="160" height="104" as="geometry" />
        </mxCell>
        <mxCell id="wwnRxYGcSm5nalg1qEp3-11" value="+ List&lt;IRunnable&gt; : Events&#xa;+ UnityEvent : Finished" style="text;strokeColor=none;fillColor=none;align=left;verticalAlign=top;spacingLeft=4;spacingRight=4;overflow=hidden;rotatable=0;points=[[0,0.5],[1,0.5]];portConstraint=eastwest;" vertex="1" parent="wwnRxYGcSm5nalg1qEp3-10">
          <mxGeometry y="26" width="160" height="44" as="geometry" />
        </mxCell>
        <mxCell id="wwnRxYGcSm5nalg1qEp3-12" value="" style="line;strokeWidth=1;fillColor=none;align=left;verticalAlign=middle;spacingTop=-1;spacingLeft=3;spacingRight=3;rotatable=0;labelPosition=right;points=[];portConstraint=eastwest;strokeColor=inherit;" vertex="1" parent="wwnRxYGcSm5nalg1qEp3-10">
          <mxGeometry y="70" width="160" height="8" as="geometry" />
        </mxCell>
        <mxCell id="wwnRxYGcSm5nalg1qEp3-13" value="+ Add(IRunnable) : void" style="text;strokeColor=none;fillColor=none;align=left;verticalAlign=top;spacingLeft=4;spacingRight=4;overflow=hidden;rotatable=0;points=[[0,0.5],[1,0.5]];portConstraint=eastwest;" vertex="1" parent="wwnRxYGcSm5nalg1qEp3-10">
          <mxGeometry y="78" width="160" height="26" as="geometry" />
        </mxCell>
        <mxCell id="wwnRxYGcSm5nalg1qEp3-14" value="EventsSequenceParser" style="swimlane;fontStyle=1;align=center;verticalAlign=top;childLayout=stackLayout;horizontal=1;startSize=26;horizontalStack=0;resizeParent=1;resizeParentMax=0;resizeLast=0;collapsible=1;marginBottom=0;" vertex="1" parent="1">
          <mxGeometry x="170" y="400" width="320" height="80" as="geometry" />
        </mxCell>
        <mxCell id="wwnRxYGcSm5nalg1qEp3-15" value="" style="line;strokeWidth=1;fillColor=none;align=left;verticalAlign=middle;spacingTop=-1;spacingLeft=3;spacingRight=3;rotatable=0;labelPosition=right;points=[];portConstraint=eastwest;strokeColor=inherit;" vertex="1" parent="wwnRxYGcSm5nalg1qEp3-14">
          <mxGeometry y="26" width="320" height="8" as="geometry" />
        </mxCell>
        <mxCell id="wwnRxYGcSm5nalg1qEp3-16" value="+ ParseEventsSequence(TextAsset) : EventsSequence&#xa;+ ParseEventsSequence(XmlNode) : EventsSequence" style="text;strokeColor=none;fillColor=none;align=left;verticalAlign=top;spacingLeft=4;spacingRight=4;overflow=hidden;rotatable=0;points=[[0,0.5],[1,0.5]];portConstraint=eastwest;" vertex="1" parent="wwnRxYGcSm5nalg1qEp3-14">
          <mxGeometry y="34" width="320" height="46" as="geometry" />
        </mxCell>
      </root>
    </mxGraphModel>
  </diagram>
  <diagram id="6bQMjw3RiFBWG3b5eOe0" name="GameProgression">
    <mxGraphModel dx="1434" dy="844" grid="1" gridSize="10" guides="1" tooltips="1" connect="1" arrows="1" fold="1" page="1" pageScale="1" pageWidth="827" pageHeight="1169" math="0" shadow="0">
      <root>
        <mxCell id="0" />
        <mxCell id="1" parent="0" />
        <mxCell id="CPSQNXU4N3H02cNqlE5l-1" value="XmlGameProgressionParser" style="swimlane;fontStyle=1;align=center;verticalAlign=top;childLayout=stackLayout;horizontal=1;startSize=26;horizontalStack=0;resizeParent=1;resizeParentMax=0;resizeLast=0;collapsible=1;marginBottom=0;whiteSpace=wrap;html=1;" vertex="1" parent="1">
          <mxGeometry x="180" y="150" width="300" height="90" as="geometry" />
        </mxCell>
        <mxCell id="CPSQNXU4N3H02cNqlE5l-2" value="" style="line;strokeWidth=1;fillColor=none;align=left;verticalAlign=middle;spacingTop=-1;spacingLeft=3;spacingRight=3;rotatable=0;labelPosition=right;points=[];portConstraint=eastwest;strokeColor=inherit;" vertex="1" parent="CPSQNXU4N3H02cNqlE5l-1">
          <mxGeometry y="26" width="300" height="8" as="geometry" />
        </mxCell>
        <mxCell id="CPSQNXU4N3H02cNqlE5l-3" value="+ ParseControlSwitch(XmlNode) : ControlSwitch&lt;div&gt;+ ParseControlVariable(XmlNode) : ControlVariable&lt;/div&gt;&lt;div&gt;+ ParseControlTimer(XmlNode) : ControlTimer&lt;/div&gt;" style="text;strokeColor=none;fillColor=none;align=left;verticalAlign=top;spacingLeft=4;spacingRight=4;overflow=hidden;rotatable=0;points=[[0,0.5],[1,0.5]];portConstraint=eastwest;whiteSpace=wrap;html=1;" vertex="1" parent="CPSQNXU4N3H02cNqlE5l-1">
          <mxGeometry y="34" width="300" height="56" as="geometry" />
        </mxCell>
        <mxCell id="CPSQNXU4N3H02cNqlE5l-4" value="ControlSwitch" style="swimlane;fontStyle=1;align=center;verticalAlign=top;childLayout=stackLayout;horizontal=1;startSize=26;horizontalStack=0;resizeParent=1;resizeParentMax=0;resizeLast=0;collapsible=1;marginBottom=0;whiteSpace=wrap;html=1;" vertex="1" parent="1">
          <mxGeometry x="80" y="600" width="160" height="84" as="geometry" />
        </mxCell>
        <mxCell id="CPSQNXU4N3H02cNqlE5l-5" value="+ bool : Value" style="text;strokeColor=none;fillColor=none;align=left;verticalAlign=top;spacingLeft=4;spacingRight=4;overflow=hidden;rotatable=0;points=[[0,0.5],[1,0.5]];portConstraint=eastwest;whiteSpace=wrap;html=1;" vertex="1" parent="CPSQNXU4N3H02cNqlE5l-4">
          <mxGeometry y="26" width="160" height="24" as="geometry" />
        </mxCell>
        <mxCell id="CPSQNXU4N3H02cNqlE5l-6" value="" style="line;strokeWidth=1;fillColor=none;align=left;verticalAlign=middle;spacingTop=-1;spacingLeft=3;spacingRight=3;rotatable=0;labelPosition=right;points=[];portConstraint=eastwest;strokeColor=inherit;" vertex="1" parent="CPSQNXU4N3H02cNqlE5l-4">
          <mxGeometry y="50" width="160" height="8" as="geometry" />
        </mxCell>
        <mxCell id="CPSQNXU4N3H02cNqlE5l-7" value="+ Run(void) : void" style="text;strokeColor=none;fillColor=none;align=left;verticalAlign=top;spacingLeft=4;spacingRight=4;overflow=hidden;rotatable=0;points=[[0,0.5],[1,0.5]];portConstraint=eastwest;whiteSpace=wrap;html=1;" vertex="1" parent="CPSQNXU4N3H02cNqlE5l-4">
          <mxGeometry y="58" width="160" height="26" as="geometry" />
        </mxCell>
        <mxCell id="CPSQNXU4N3H02cNqlE5l-8" value="«interface»&lt;br&gt;&lt;b&gt;IRunnable&lt;/b&gt;" style="html=1;" vertex="1" parent="1">
          <mxGeometry x="280" y="305" width="110" height="50" as="geometry" />
        </mxCell>
        <mxCell id="CPSQNXU4N3H02cNqlE5l-9" value="See Engine.Events" style="shape=note;whiteSpace=wrap;html=1;backgroundOutline=1;darkOpacity=0.05;" vertex="1" parent="1">
          <mxGeometry x="465" y="300" width="160" height="60" as="geometry" />
        </mxCell>
        <mxCell id="CPSQNXU4N3H02cNqlE5l-10" value="" style="endArrow=none;html=1;rounded=0;exitX=1;exitY=0.5;exitDx=0;exitDy=0;entryX=0;entryY=0.5;entryDx=0;entryDy=0;entryPerimeter=0;" edge="1" parent="1" source="CPSQNXU4N3H02cNqlE5l-8" target="CPSQNXU4N3H02cNqlE5l-9">
          <mxGeometry width="50" height="50" relative="1" as="geometry">
            <mxPoint x="335" y="585" as="sourcePoint" />
            <mxPoint x="385" y="535" as="targetPoint" />
          </mxGeometry>
        </mxCell>
        <mxCell id="CPSQNXU4N3H02cNqlE5l-11" value="ControlTimer" style="swimlane;fontStyle=1;align=center;verticalAlign=top;childLayout=stackLayout;horizontal=1;startSize=26;horizontalStack=0;resizeParent=1;resizeParentMax=0;resizeLast=0;collapsible=1;marginBottom=0;whiteSpace=wrap;html=1;" vertex="1" parent="1">
          <mxGeometry x="290" y="600" width="160" height="104" as="geometry" />
        </mxCell>
        <mxCell id="CPSQNXU4N3H02cNqlE5l-12" value="+ TimerAction : Action&lt;div&gt;+ int : Duration&lt;/div&gt;" style="text;strokeColor=none;fillColor=none;align=left;verticalAlign=top;spacingLeft=4;spacingRight=4;overflow=hidden;rotatable=0;points=[[0,0.5],[1,0.5]];portConstraint=eastwest;whiteSpace=wrap;html=1;" vertex="1" parent="CPSQNXU4N3H02cNqlE5l-11">
          <mxGeometry y="26" width="160" height="44" as="geometry" />
        </mxCell>
        <mxCell id="CPSQNXU4N3H02cNqlE5l-13" value="" style="line;strokeWidth=1;fillColor=none;align=left;verticalAlign=middle;spacingTop=-1;spacingLeft=3;spacingRight=3;rotatable=0;labelPosition=right;points=[];portConstraint=eastwest;strokeColor=inherit;" vertex="1" parent="CPSQNXU4N3H02cNqlE5l-11">
          <mxGeometry y="70" width="160" height="8" as="geometry" />
        </mxCell>
        <mxCell id="CPSQNXU4N3H02cNqlE5l-14" value="+ Run(void) : void" style="text;strokeColor=none;fillColor=none;align=left;verticalAlign=top;spacingLeft=4;spacingRight=4;overflow=hidden;rotatable=0;points=[[0,0.5],[1,0.5]];portConstraint=eastwest;whiteSpace=wrap;html=1;" vertex="1" parent="CPSQNXU4N3H02cNqlE5l-11">
          <mxGeometry y="78" width="160" height="26" as="geometry" />
        </mxCell>
        <mxCell id="CPSQNXU4N3H02cNqlE5l-15" value="ControlVariable" style="swimlane;fontStyle=1;align=center;verticalAlign=top;childLayout=stackLayout;horizontal=1;startSize=26;horizontalStack=0;resizeParent=1;resizeParentMax=0;resizeLast=0;collapsible=1;marginBottom=0;whiteSpace=wrap;html=1;" vertex="1" parent="1">
          <mxGeometry x="500" y="600" width="160" height="150" as="geometry" />
        </mxCell>
        <mxCell id="CPSQNXU4N3H02cNqlE5l-16" value="+ Operator : Operation&lt;div&gt;+ OperandType : Operand&lt;/div&gt;&lt;div&gt;+ List&amp;lt;int&amp;gt; : Values&lt;/div&gt;" style="text;strokeColor=none;fillColor=none;align=left;verticalAlign=top;spacingLeft=4;spacingRight=4;overflow=hidden;rotatable=0;points=[[0,0.5],[1,0.5]];portConstraint=eastwest;whiteSpace=wrap;html=1;" vertex="1" parent="CPSQNXU4N3H02cNqlE5l-15">
          <mxGeometry y="26" width="160" height="64" as="geometry" />
        </mxCell>
        <mxCell id="CPSQNXU4N3H02cNqlE5l-17" value="" style="line;strokeWidth=1;fillColor=none;align=left;verticalAlign=middle;spacingTop=-1;spacingLeft=3;spacingRight=3;rotatable=0;labelPosition=right;points=[];portConstraint=eastwest;strokeColor=inherit;" vertex="1" parent="CPSQNXU4N3H02cNqlE5l-15">
          <mxGeometry y="90" width="160" height="8" as="geometry" />
        </mxCell>
        <mxCell id="CPSQNXU4N3H02cNqlE5l-18" value="+ Run(void) : void&lt;div&gt;+ AddValue(int) : void&lt;/div&gt;&lt;div&gt;+ GetValue(void) : int&lt;/div&gt;" style="text;strokeColor=none;fillColor=none;align=left;verticalAlign=top;spacingLeft=4;spacingRight=4;overflow=hidden;rotatable=0;points=[[0,0.5],[1,0.5]];portConstraint=eastwest;whiteSpace=wrap;html=1;" vertex="1" parent="CPSQNXU4N3H02cNqlE5l-15">
          <mxGeometry y="98" width="160" height="52" as="geometry" />
        </mxCell>
        <mxCell id="CPSQNXU4N3H02cNqlE5l-19" value="PersistentData" style="swimlane;fontStyle=1;align=center;verticalAlign=top;childLayout=stackLayout;horizontal=1;startSize=26;horizontalStack=0;resizeParent=1;resizeParentMax=0;resizeLast=0;collapsible=1;marginBottom=0;whiteSpace=wrap;html=1;" vertex="1" parent="1">
          <mxGeometry x="254" y="410" width="160" height="118" as="geometry" />
        </mxCell>
        <mxCell id="CPSQNXU4N3H02cNqlE5l-20" value="+ string : Key&lt;div&gt;+ string : Source&lt;br&gt;&lt;div&gt;+ UnityEvent : Finished&lt;/div&gt;&lt;/div&gt;&lt;div&gt;+ bool : IsFinished&lt;/div&gt;" style="text;strokeColor=none;fillColor=none;align=left;verticalAlign=top;spacingLeft=4;spacingRight=4;overflow=hidden;rotatable=0;points=[[0,0.5],[1,0.5]];portConstraint=eastwest;whiteSpace=wrap;html=1;" vertex="1" parent="CPSQNXU4N3H02cNqlE5l-19">
          <mxGeometry y="26" width="160" height="84" as="geometry" />
        </mxCell>
        <mxCell id="CPSQNXU4N3H02cNqlE5l-21" value="" style="line;strokeWidth=1;fillColor=none;align=left;verticalAlign=middle;spacingTop=-1;spacingLeft=3;spacingRight=3;rotatable=0;labelPosition=right;points=[];portConstraint=eastwest;strokeColor=inherit;" vertex="1" parent="CPSQNXU4N3H02cNqlE5l-19">
          <mxGeometry y="110" width="160" height="8" as="geometry" />
        </mxCell>
        <mxCell id="CPSQNXU4N3H02cNqlE5l-22" value="" style="endArrow=block;dashed=1;endFill=0;endSize=12;html=1;rounded=0;entryX=0.5;entryY=1;entryDx=0;entryDy=0;exitX=0.5;exitY=0;exitDx=0;exitDy=0;" edge="1" parent="1" source="CPSQNXU4N3H02cNqlE5l-19" target="CPSQNXU4N3H02cNqlE5l-8">
          <mxGeometry width="160" relative="1" as="geometry">
            <mxPoint x="330" y="430" as="sourcePoint" />
            <mxPoint x="490" y="430" as="targetPoint" />
          </mxGeometry>
        </mxCell>
        <mxCell id="CPSQNXU4N3H02cNqlE5l-23" value="Extends" style="endArrow=block;endSize=16;endFill=0;html=1;rounded=0;exitX=0.5;exitY=0;exitDx=0;exitDy=0;entryX=0.5;entryY=0.875;entryDx=0;entryDy=0;entryPerimeter=0;" edge="1" parent="1" source="CPSQNXU4N3H02cNqlE5l-4" target="CPSQNXU4N3H02cNqlE5l-21">
          <mxGeometry width="160" relative="1" as="geometry">
            <mxPoint x="330" y="430" as="sourcePoint" />
            <mxPoint x="490" y="430" as="targetPoint" />
          </mxGeometry>
        </mxCell>
        <mxCell id="CPSQNXU4N3H02cNqlE5l-24" value="Extends" style="endArrow=block;endSize=16;endFill=0;html=1;rounded=0;exitX=0.5;exitY=0;exitDx=0;exitDy=0;entryX=0.5;entryY=1;entryDx=0;entryDy=0;" edge="1" parent="1" source="CPSQNXU4N3H02cNqlE5l-11" target="CPSQNXU4N3H02cNqlE5l-19">
          <mxGeometry width="160" relative="1" as="geometry">
            <mxPoint x="330" y="430" as="sourcePoint" />
            <mxPoint x="330" y="500" as="targetPoint" />
          </mxGeometry>
        </mxCell>
        <mxCell id="CPSQNXU4N3H02cNqlE5l-25" value="Extends" style="endArrow=block;endSize=16;endFill=0;html=1;rounded=0;exitX=0.5;exitY=0;exitDx=0;exitDy=0;" edge="1" parent="1" source="CPSQNXU4N3H02cNqlE5l-15">
          <mxGeometry width="160" relative="1" as="geometry">
            <mxPoint x="330" y="430" as="sourcePoint" />
            <mxPoint x="340" y="530" as="targetPoint" />
          </mxGeometry>
        </mxCell>
        <mxCell id="CPSQNXU4N3H02cNqlE5l-26" value="enum TimerAction&lt;br&gt;&lt;br&gt;Start&lt;br&gt;Stop" style="html=1;" vertex="1" parent="1">
          <mxGeometry x="300" y="760" width="140" height="80" as="geometry" />
        </mxCell>
        <mxCell id="CPSQNXU4N3H02cNqlE5l-27" value="enum Operator&lt;br&gt;&lt;br&gt;Set&lt;br&gt;Add&lt;div&gt;Sub&lt;/div&gt;&lt;div&gt;Mul&lt;/div&gt;&lt;div&gt;Div&lt;/div&gt;&lt;div&gt;Mod&lt;/div&gt;" style="html=1;" vertex="1" parent="1">
          <mxGeometry x="510" y="760" width="140" height="130" as="geometry" />
        </mxCell>
        <mxCell id="CPSQNXU4N3H02cNqlE5l-28" value="enum OperandType&lt;br&gt;&lt;br&gt;Constant&lt;div&gt;Variable&lt;/div&gt;&lt;div&gt;Random&lt;/div&gt;" style="html=1;" vertex="1" parent="1">
          <mxGeometry x="670" y="760" width="140" height="130" as="geometry" />
        </mxCell>
      </root>
    </mxGraphModel>
  </diagram>
  <diagram id="CagioQ63VvlSjPQ9b97E" name="FlowControl">
    <mxGraphModel dx="1434" dy="844" grid="1" gridSize="10" guides="1" tooltips="1" connect="1" arrows="1" fold="1" page="1" pageScale="1" pageWidth="827" pageHeight="1169" math="0" shadow="0">
      <root>
        <mxCell id="0" />
        <mxCell id="1" parent="0" />
        <mxCell id="A3piE-_tQuNUD-q11dHQ-1" value="«interface»&lt;br&gt;&lt;b&gt;IRunnable&lt;/b&gt;" style="html=1;" vertex="1" parent="1">
          <mxGeometry x="330" y="15" width="110" height="50" as="geometry" />
        </mxCell>
        <mxCell id="A3piE-_tQuNUD-q11dHQ-2" value="See Engine.Events" style="shape=note;whiteSpace=wrap;html=1;backgroundOutline=1;darkOpacity=0.05;" vertex="1" parent="1">
          <mxGeometry x="515" y="10" width="160" height="60" as="geometry" />
        </mxCell>
        <mxCell id="A3piE-_tQuNUD-q11dHQ-3" value="" style="endArrow=none;html=1;rounded=0;exitX=1;exitY=0.5;exitDx=0;exitDy=0;entryX=0;entryY=0.5;entryDx=0;entryDy=0;entryPerimeter=0;" edge="1" parent="1" source="A3piE-_tQuNUD-q11dHQ-1" target="A3piE-_tQuNUD-q11dHQ-2">
          <mxGeometry width="50" height="50" relative="1" as="geometry">
            <mxPoint x="385" y="330" as="sourcePoint" />
            <mxPoint x="435" y="280" as="targetPoint" />
          </mxGeometry>
        </mxCell>
        <mxCell id="A3piE-_tQuNUD-q11dHQ-4" value="SwitchCondition" style="swimlane;fontStyle=1;align=center;verticalAlign=top;childLayout=stackLayout;horizontal=1;startSize=26;horizontalStack=0;resizeParent=1;resizeParentMax=0;resizeLast=0;collapsible=1;marginBottom=0;whiteSpace=wrap;html=1;" vertex="1" parent="1">
          <mxGeometry x="110" y="390" width="160" height="86" as="geometry" />
        </mxCell>
        <mxCell id="A3piE-_tQuNUD-q11dHQ-5" value="+ Type : Condition" style="text;strokeColor=none;fillColor=none;align=left;verticalAlign=top;spacingLeft=4;spacingRight=4;overflow=hidden;rotatable=0;points=[[0,0.5],[1,0.5]];portConstraint=eastwest;whiteSpace=wrap;html=1;" vertex="1" parent="A3piE-_tQuNUD-q11dHQ-4">
          <mxGeometry y="26" width="160" height="26" as="geometry" />
        </mxCell>
        <mxCell id="A3piE-_tQuNUD-q11dHQ-6" value="" style="line;strokeWidth=1;fillColor=none;align=left;verticalAlign=middle;spacingTop=-1;spacingLeft=3;spacingRight=3;rotatable=0;labelPosition=right;points=[];portConstraint=eastwest;strokeColor=inherit;" vertex="1" parent="A3piE-_tQuNUD-q11dHQ-4">
          <mxGeometry y="52" width="160" height="8" as="geometry" />
        </mxCell>
        <mxCell id="A3piE-_tQuNUD-q11dHQ-7" value="+ Run(void) : void" style="text;strokeColor=none;fillColor=none;align=left;verticalAlign=top;spacingLeft=4;spacingRight=4;overflow=hidden;rotatable=0;points=[[0,0.5],[1,0.5]];portConstraint=eastwest;whiteSpace=wrap;html=1;" vertex="1" parent="A3piE-_tQuNUD-q11dHQ-4">
          <mxGeometry y="60" width="160" height="26" as="geometry" />
        </mxCell>
        <mxCell id="A3piE-_tQuNUD-q11dHQ-8" value="VariableCondition" style="swimlane;fontStyle=1;align=center;verticalAlign=top;childLayout=stackLayout;horizontal=1;startSize=26;horizontalStack=0;resizeParent=1;resizeParentMax=0;resizeLast=0;collapsible=1;marginBottom=0;whiteSpace=wrap;html=1;" vertex="1" parent="1">
          <mxGeometry x="560" y="390" width="160" height="86" as="geometry" />
        </mxCell>
        <mxCell id="A3piE-_tQuNUD-q11dHQ-9" value="+ Type : Condition" style="text;strokeColor=none;fillColor=none;align=left;verticalAlign=top;spacingLeft=4;spacingRight=4;overflow=hidden;rotatable=0;points=[[0,0.5],[1,0.5]];portConstraint=eastwest;whiteSpace=wrap;html=1;" vertex="1" parent="A3piE-_tQuNUD-q11dHQ-8">
          <mxGeometry y="26" width="160" height="26" as="geometry" />
        </mxCell>
        <mxCell id="A3piE-_tQuNUD-q11dHQ-10" value="" style="line;strokeWidth=1;fillColor=none;align=left;verticalAlign=middle;spacingTop=-1;spacingLeft=3;spacingRight=3;rotatable=0;labelPosition=right;points=[];portConstraint=eastwest;strokeColor=inherit;" vertex="1" parent="A3piE-_tQuNUD-q11dHQ-8">
          <mxGeometry y="52" width="160" height="8" as="geometry" />
        </mxCell>
        <mxCell id="A3piE-_tQuNUD-q11dHQ-11" value="+ Run(void) : void" style="text;strokeColor=none;fillColor=none;align=left;verticalAlign=top;spacingLeft=4;spacingRight=4;overflow=hidden;rotatable=0;points=[[0,0.5],[1,0.5]];portConstraint=eastwest;whiteSpace=wrap;html=1;" vertex="1" parent="A3piE-_tQuNUD-q11dHQ-8">
          <mxGeometry y="60" width="160" height="26" as="geometry" />
        </mxCell>
        <mxCell id="A3piE-_tQuNUD-q11dHQ-12" value="TimerCondition" style="swimlane;fontStyle=1;align=center;verticalAlign=top;childLayout=stackLayout;horizontal=1;startSize=26;horizontalStack=0;resizeParent=1;resizeParentMax=0;resizeLast=0;collapsible=1;marginBottom=0;whiteSpace=wrap;html=1;" vertex="1" parent="1">
          <mxGeometry x="345" y="390" width="160" height="86" as="geometry" />
        </mxCell>
        <mxCell id="A3piE-_tQuNUD-q11dHQ-13" value="+ Type : Condition" style="text;strokeColor=none;fillColor=none;align=left;verticalAlign=top;spacingLeft=4;spacingRight=4;overflow=hidden;rotatable=0;points=[[0,0.5],[1,0.5]];portConstraint=eastwest;whiteSpace=wrap;html=1;" vertex="1" parent="A3piE-_tQuNUD-q11dHQ-12">
          <mxGeometry y="26" width="160" height="26" as="geometry" />
        </mxCell>
        <mxCell id="A3piE-_tQuNUD-q11dHQ-14" value="" style="line;strokeWidth=1;fillColor=none;align=left;verticalAlign=middle;spacingTop=-1;spacingLeft=3;spacingRight=3;rotatable=0;labelPosition=right;points=[];portConstraint=eastwest;strokeColor=inherit;" vertex="1" parent="A3piE-_tQuNUD-q11dHQ-12">
          <mxGeometry y="52" width="160" height="8" as="geometry" />
        </mxCell>
        <mxCell id="A3piE-_tQuNUD-q11dHQ-15" value="+ Run(void) : void" style="text;strokeColor=none;fillColor=none;align=left;verticalAlign=top;spacingLeft=4;spacingRight=4;overflow=hidden;rotatable=0;points=[[0,0.5],[1,0.5]];portConstraint=eastwest;whiteSpace=wrap;html=1;" vertex="1" parent="A3piE-_tQuNUD-q11dHQ-12">
          <mxGeometry y="60" width="160" height="26" as="geometry" />
        </mxCell>
        <mxCell id="A3piE-_tQuNUD-q11dHQ-16" value="Extends" style="endArrow=block;endSize=16;endFill=0;html=1;rounded=0;exitX=0.5;exitY=0;exitDx=0;exitDy=0;" edge="1" parent="1" source="A3piE-_tQuNUD-q11dHQ-4" target="A3piE-_tQuNUD-q11dHQ-29">
          <mxGeometry width="160" relative="1" as="geometry">
            <mxPoint x="330" y="430" as="sourcePoint" />
            <mxPoint x="390" y="308" as="targetPoint" />
          </mxGeometry>
        </mxCell>
        <mxCell id="A3piE-_tQuNUD-q11dHQ-17" value="Extends" style="endArrow=block;endSize=16;endFill=0;html=1;rounded=0;exitX=0.5;exitY=0;exitDx=0;exitDy=0;" edge="1" parent="1" source="A3piE-_tQuNUD-q11dHQ-12" target="A3piE-_tQuNUD-q11dHQ-29">
          <mxGeometry width="160" relative="1" as="geometry">
            <mxPoint x="330" y="430" as="sourcePoint" />
            <mxPoint x="390" y="308" as="targetPoint" />
          </mxGeometry>
        </mxCell>
        <mxCell id="A3piE-_tQuNUD-q11dHQ-18" value="Extends" style="endArrow=block;endSize=16;endFill=0;html=1;rounded=0;exitX=0.5;exitY=0;exitDx=0;exitDy=0;" edge="1" parent="1" source="A3piE-_tQuNUD-q11dHQ-8" target="A3piE-_tQuNUD-q11dHQ-29">
          <mxGeometry width="160" relative="1" as="geometry">
            <mxPoint x="330" y="430" as="sourcePoint" />
            <mxPoint x="390" y="310" as="targetPoint" />
          </mxGeometry>
        </mxCell>
        <mxCell id="A3piE-_tQuNUD-q11dHQ-19" value="enum Type&lt;br&gt;&lt;br&gt;Equal&lt;br&gt;NotEqual" style="html=1;" vertex="1" parent="1">
          <mxGeometry x="120" y="540" width="140" height="80" as="geometry" />
        </mxCell>
        <mxCell id="A3piE-_tQuNUD-q11dHQ-20" value="enum Type&lt;br&gt;&lt;br&gt;Equal&lt;br&gt;GreaterThan&lt;div&gt;SmallerThan&lt;/div&gt;&lt;div&gt;Different&lt;/div&gt;&lt;div&gt;EqualOrGreaterThan&lt;/div&gt;&lt;div&gt;EqualOrSmallerThan&lt;/div&gt;" style="html=1;" vertex="1" parent="1">
          <mxGeometry x="570" y="530" width="140" height="135" as="geometry" />
        </mxCell>
        <mxCell id="A3piE-_tQuNUD-q11dHQ-21" value="enum Type&lt;br&gt;&lt;br&gt;Before&lt;br&gt;After" style="html=1;" vertex="1" parent="1">
          <mxGeometry x="355" y="545" width="140" height="80" as="geometry" />
        </mxCell>
        <mxCell id="A3piE-_tQuNUD-q11dHQ-22" value="ConditionEvaluator" style="swimlane;fontStyle=1;align=center;verticalAlign=top;childLayout=stackLayout;horizontal=1;startSize=26;horizontalStack=0;resizeParent=1;resizeParentMax=0;resizeLast=0;collapsible=1;marginBottom=0;whiteSpace=wrap;html=1;" vertex="1" parent="1">
          <mxGeometry x="190" y="700" width="470" height="280" as="geometry" />
        </mxCell>
        <mxCell id="A3piE-_tQuNUD-q11dHQ-23" value="+ ConditionEvaluator : _instance&lt;div&gt;+ ConditionEvaluator : Instance&lt;/div&gt;" style="text;strokeColor=none;fillColor=none;align=left;verticalAlign=top;spacingLeft=4;spacingRight=4;overflow=hidden;rotatable=0;points=[[0,0.5],[1,0.5]];portConstraint=eastwest;whiteSpace=wrap;html=1;" vertex="1" parent="A3piE-_tQuNUD-q11dHQ-22">
          <mxGeometry y="26" width="470" height="44" as="geometry" />
        </mxCell>
        <mxCell id="A3piE-_tQuNUD-q11dHQ-24" value="" style="line;strokeWidth=1;fillColor=none;align=left;verticalAlign=middle;spacingTop=-1;spacingLeft=3;spacingRight=3;rotatable=0;labelPosition=right;points=[];portConstraint=eastwest;strokeColor=inherit;" vertex="1" parent="A3piE-_tQuNUD-q11dHQ-22">
          <mxGeometry y="70" width="470" height="8" as="geometry" />
        </mxCell>
        <mxCell id="A3piE-_tQuNUD-q11dHQ-25" value="+ EvaluateSwitchCondition(SwitchCondition) : bool&lt;div&gt;+ EvaluateVariableCondition(VariableCondition) : bool&lt;/div&gt;&lt;div&gt;+ EvaluateTimerCondition(TimerCondition) : bool&lt;/div&gt;&lt;div&gt;+ ProcessSwitchCondition(bool, bool, SwitchCondition.Type) : bool&lt;/div&gt;&lt;div&gt;+ ProcessTimerCondition(Timer, int, TimerCondition.Type) : bool&lt;/div&gt;&lt;div&gt;+ ProcessTimerCondition(Timer, Timer, TimerCondition.Type) : bool&lt;/div&gt;&lt;div&gt;+ ProcessVariableCondition(int, int, VariableCondition.Type) : bool&lt;br&gt;&lt;div&gt;+ EvaluateMembers(PersistentDataHolder, bool, string, SwitchCondition.Type) : bool&lt;/div&gt;&lt;/div&gt;&lt;div&gt;+ EvaluateMembers(PersistentDataHolder, SwitchCondition) : bool&lt;/div&gt;&lt;div&gt;+ EvaluateMembers(TimersManager, int, string, TimerCondition.Type) : bool&lt;/div&gt;&lt;div&gt;+ EvaluateMembers(TimersManager, TimerCondition) : bool&lt;/div&gt;&lt;div&gt;+ EvaluateMembers(PersistentDataHolder, int, string, VariableCondition.Type) : bool&lt;/div&gt;&lt;div&gt;+ EvaluateMembers(PersistentDataHolder, VariableCondition) : bool&lt;/div&gt;" style="text;strokeColor=none;fillColor=none;align=left;verticalAlign=top;spacingLeft=4;spacingRight=4;overflow=hidden;rotatable=0;points=[[0,0.5],[1,0.5]];portConstraint=eastwest;whiteSpace=wrap;html=1;" vertex="1" parent="A3piE-_tQuNUD-q11dHQ-22">
          <mxGeometry y="78" width="470" height="202" as="geometry" />
        </mxCell>
        <mxCell id="A3piE-_tQuNUD-q11dHQ-26" value="ConditionalBranch" style="swimlane;fontStyle=1;align=center;verticalAlign=top;childLayout=stackLayout;horizontal=1;startSize=26;horizontalStack=0;resizeParent=1;resizeParentMax=0;resizeLast=0;collapsible=1;marginBottom=0;whiteSpace=wrap;html=1;" vertex="1" parent="1">
          <mxGeometry x="230" y="110" width="380" height="180" as="geometry" />
        </mxCell>
        <mxCell id="A3piE-_tQuNUD-q11dHQ-27" value="+ string : FirstMember&lt;div&gt;+ string : SecondMember&lt;/div&gt;&lt;div&gt;+ UnityEvent : Finished&lt;/div&gt;&lt;div&gt;+ bool : IsFinished&lt;/div&gt;&lt;div&gt;+ EventsSequence : SequenceWhenTrue&lt;/div&gt;&lt;div&gt;+ EventsSequence : EventsWhenFalse&lt;/div&gt;" style="text;strokeColor=none;fillColor=none;align=left;verticalAlign=top;spacingLeft=4;spacingRight=4;overflow=hidden;rotatable=0;points=[[0,0.5],[1,0.5]];portConstraint=eastwest;whiteSpace=wrap;html=1;" vertex="1" parent="A3piE-_tQuNUD-q11dHQ-26">
          <mxGeometry y="26" width="380" height="104" as="geometry" />
        </mxCell>
        <mxCell id="A3piE-_tQuNUD-q11dHQ-28" value="" style="line;strokeWidth=1;fillColor=none;align=left;verticalAlign=middle;spacingTop=-1;spacingLeft=3;spacingRight=3;rotatable=0;labelPosition=right;points=[];portConstraint=eastwest;strokeColor=inherit;" vertex="1" parent="A3piE-_tQuNUD-q11dHQ-26">
          <mxGeometry y="130" width="380" height="8" as="geometry" />
        </mxCell>
        <mxCell id="A3piE-_tQuNUD-q11dHQ-29" value="+ DefineSequences(bool) : void&lt;div&gt;+ Conclude(void) : void&lt;/div&gt;" style="text;strokeColor=none;fillColor=none;align=left;verticalAlign=top;spacingLeft=4;spacingRight=4;overflow=hidden;rotatable=0;points=[[0,0.5],[1,0.5]];portConstraint=eastwest;whiteSpace=wrap;html=1;" vertex="1" parent="A3piE-_tQuNUD-q11dHQ-26">
          <mxGeometry y="138" width="380" height="42" as="geometry" />
        </mxCell>
        <mxCell id="A3piE-_tQuNUD-q11dHQ-30" value="" style="endArrow=block;dashed=1;endFill=0;endSize=12;html=1;rounded=0;exitX=0.5;exitY=0;exitDx=0;exitDy=0;entryX=0.5;entryY=1;entryDx=0;entryDy=0;" edge="1" parent="1" source="A3piE-_tQuNUD-q11dHQ-26" target="A3piE-_tQuNUD-q11dHQ-1">
          <mxGeometry width="160" relative="1" as="geometry">
            <mxPoint x="330" y="330" as="sourcePoint" />
            <mxPoint x="490" y="330" as="targetPoint" />
          </mxGeometry>
        </mxCell>
        <mxCell id="A3piE-_tQuNUD-q11dHQ-31" value="XmlFlowControlParser" style="swimlane;fontStyle=1;align=center;verticalAlign=top;childLayout=stackLayout;horizontal=1;startSize=26;horizontalStack=0;resizeParent=1;resizeParentMax=0;resizeLast=0;collapsible=1;marginBottom=0;whiteSpace=wrap;html=1;" vertex="1" parent="1">
          <mxGeometry x="224" y="1010" width="380" height="80" as="geometry" />
        </mxCell>
        <mxCell id="A3piE-_tQuNUD-q11dHQ-32" value="" style="line;strokeWidth=1;fillColor=none;align=left;verticalAlign=middle;spacingTop=-1;spacingLeft=3;spacingRight=3;rotatable=0;labelPosition=right;points=[];portConstraint=eastwest;strokeColor=inherit;" vertex="1" parent="A3piE-_tQuNUD-q11dHQ-31">
          <mxGeometry y="26" width="380" height="8" as="geometry" />
        </mxCell>
        <mxCell id="A3piE-_tQuNUD-q11dHQ-33" value="+ ParseConditionalBranch(XmlNode) : ConditionalBranch&lt;div&gt;+ ParseConditionResults(bool, XmlNode) : EventsSequence&lt;/div&gt;" style="text;strokeColor=none;fillColor=none;align=left;verticalAlign=top;spacingLeft=4;spacingRight=4;overflow=hidden;rotatable=0;points=[[0,0.5],[1,0.5]];portConstraint=eastwest;whiteSpace=wrap;html=1;" vertex="1" parent="A3piE-_tQuNUD-q11dHQ-31">
          <mxGeometry y="34" width="380" height="46" as="geometry" />
        </mxCell>
      </root>
    </mxGraphModel>
  </diagram>
  <diagram id="xL39P7j6-tPxmdrjp3l7" name="Timing">
    <mxGraphModel dx="1434" dy="844" grid="1" gridSize="10" guides="1" tooltips="1" connect="1" arrows="1" fold="1" page="1" pageScale="1" pageWidth="827" pageHeight="1169" math="0" shadow="0">
      <root>
        <mxCell id="0" />
        <mxCell id="1" parent="0" />
        <mxCell id="hda81YelzDKV9c_ym2wV-1" value="«interface»&lt;br&gt;&lt;b&gt;IRunnable&lt;/b&gt;" style="html=1;" vertex="1" parent="1">
          <mxGeometry x="330" y="15" width="110" height="50" as="geometry" />
        </mxCell>
        <mxCell id="hda81YelzDKV9c_ym2wV-2" value="See Engine.Events" style="shape=note;whiteSpace=wrap;html=1;backgroundOutline=1;darkOpacity=0.05;" vertex="1" parent="1">
          <mxGeometry x="515" y="10" width="160" height="60" as="geometry" />
        </mxCell>
        <mxCell id="hda81YelzDKV9c_ym2wV-3" value="" style="endArrow=none;html=1;rounded=0;exitX=1;exitY=0.5;exitDx=0;exitDy=0;entryX=0;entryY=0.5;entryDx=0;entryDy=0;entryPerimeter=0;" edge="1" parent="1" source="hda81YelzDKV9c_ym2wV-1" target="hda81YelzDKV9c_ym2wV-2">
          <mxGeometry width="50" height="50" relative="1" as="geometry">
            <mxPoint x="385" y="330" as="sourcePoint" />
            <mxPoint x="435" y="280" as="targetPoint" />
          </mxGeometry>
        </mxCell>
        <mxCell id="hda81YelzDKV9c_ym2wV-4" value="Wait" style="swimlane;fontStyle=1;align=center;verticalAlign=top;childLayout=stackLayout;horizontal=1;startSize=26;horizontalStack=0;resizeParent=1;resizeParentMax=0;resizeLast=0;collapsible=1;marginBottom=0;whiteSpace=wrap;html=1;" vertex="1" parent="1">
          <mxGeometry x="245" y="170" width="280" height="134" as="geometry" />
        </mxCell>
        <mxCell id="hda81YelzDKV9c_ym2wV-5" value="+ float : Duration&lt;div&gt;+ UnityEvent : Finished&lt;/div&gt;&lt;div&gt;+ bool : IsFinished&lt;/div&gt;" style="text;strokeColor=none;fillColor=none;align=left;verticalAlign=top;spacingLeft=4;spacingRight=4;overflow=hidden;rotatable=0;points=[[0,0.5],[1,0.5]];portConstraint=eastwest;whiteSpace=wrap;html=1;" vertex="1" parent="hda81YelzDKV9c_ym2wV-4">
          <mxGeometry y="26" width="280" height="74" as="geometry" />
        </mxCell>
        <mxCell id="hda81YelzDKV9c_ym2wV-6" value="" style="line;strokeWidth=1;fillColor=none;align=left;verticalAlign=middle;spacingTop=-1;spacingLeft=3;spacingRight=3;rotatable=0;labelPosition=right;points=[];portConstraint=eastwest;strokeColor=inherit;" vertex="1" parent="hda81YelzDKV9c_ym2wV-4">
          <mxGeometry y="100" width="280" height="8" as="geometry" />
        </mxCell>
        <mxCell id="hda81YelzDKV9c_ym2wV-7" value="+ Run(void) : void" style="text;strokeColor=none;fillColor=none;align=left;verticalAlign=top;spacingLeft=4;spacingRight=4;overflow=hidden;rotatable=0;points=[[0,0.5],[1,0.5]];portConstraint=eastwest;whiteSpace=wrap;html=1;" vertex="1" parent="hda81YelzDKV9c_ym2wV-4">
          <mxGeometry y="108" width="280" height="26" as="geometry" />
        </mxCell>
        <mxCell id="hda81YelzDKV9c_ym2wV-8" value="" style="endArrow=block;dashed=1;endFill=0;endSize=12;html=1;rounded=0;exitX=0.5;exitY=0;exitDx=0;exitDy=0;entryX=0.5;entryY=1;entryDx=0;entryDy=0;" edge="1" parent="1" source="hda81YelzDKV9c_ym2wV-4" target="hda81YelzDKV9c_ym2wV-1">
          <mxGeometry width="160" relative="1" as="geometry">
            <mxPoint x="330" y="230" as="sourcePoint" />
            <mxPoint x="490" y="230" as="targetPoint" />
          </mxGeometry>
        </mxCell>
        <mxCell id="hda81YelzDKV9c_ym2wV-9" value="XmlTimingParser" style="swimlane;fontStyle=1;align=center;verticalAlign=top;childLayout=stackLayout;horizontal=1;startSize=26;horizontalStack=0;resizeParent=1;resizeParentMax=0;resizeLast=0;collapsible=1;marginBottom=0;whiteSpace=wrap;html=1;" vertex="1" parent="1">
          <mxGeometry x="275" y="390" width="220" height="60" as="geometry" />
        </mxCell>
        <mxCell id="hda81YelzDKV9c_ym2wV-10" value="" style="line;strokeWidth=1;fillColor=none;align=left;verticalAlign=middle;spacingTop=-1;spacingLeft=3;spacingRight=3;rotatable=0;labelPosition=right;points=[];portConstraint=eastwest;strokeColor=inherit;" vertex="1" parent="hda81YelzDKV9c_ym2wV-9">
          <mxGeometry y="26" width="220" height="8" as="geometry" />
        </mxCell>
        <mxCell id="hda81YelzDKV9c_ym2wV-11" value="+ ParseWait(XmlNode) : Wait" style="text;strokeColor=none;fillColor=none;align=left;verticalAlign=top;spacingLeft=4;spacingRight=4;overflow=hidden;rotatable=0;points=[[0,0.5],[1,0.5]];portConstraint=eastwest;whiteSpace=wrap;html=1;" vertex="1" parent="hda81YelzDKV9c_ym2wV-9">
          <mxGeometry y="34" width="220" height="26" as="geometry" />
        </mxCell>
      </root>
    </mxGraphModel>
  </diagram>
</mxfile>
